<svg width="32" height="32" viewBox="0 0 32 32" fill="none" xmlns="http://www.w3.org/2000/svg">
<rect x="0.5" y="0.5" width="31" height="31" rx="15.5" stroke="#2D2DB4" stroke-opacity="0.5"/>
<path fill-rule="evenodd" clip-rule="evenodd" d="M23.032 9.888C23.4179 9.99825 23.7681 10.208 24.0475 10.4961C24.3269 10.7843 24.5257 11.1408 24.624 11.53C25 12.978 25 16 25 16C25 16 25 19.022 24.624 20.47C24.5258 20.859 24.3272 21.2155 24.048 21.5037C23.7688 21.7918 23.4188 22.0016 23.033 22.112C21.628 22.5 16 22.5 16 22.5C16 22.5 10.371 22.5 8.967 22.112C8.58143 22.0014 8.23163 21.7916 7.9526 21.5034C7.67358 21.2153 7.47509 20.8589 7.377 20.47C7 19.022 7 16 7 16C7 16 7 12.978 7.376 11.53C7.47418 11.141 7.67281 10.7845 7.95203 10.4963C8.23124 10.2082 8.58124 9.9984 8.967 9.888C10.371 9.5 16 9.5 16 9.5C16 9.5 21.629 9.5 23.032 9.888ZM18.877 16L14.2 18.785V13.214L18.877 16Z" fill="#2D2DB4"/>
</svg>
