<svg width="32" height="32" viewBox="0 0 32 32" fill="none" xmlns="http://www.w3.org/2000/svg">
<rect x="0.5" y="0.5" width="31" height="31" rx="15.5" stroke="#2D2DB4" stroke-opacity="0.5"/>
<path fill-rule="evenodd" clip-rule="evenodd" d="M6.80649 14.888C11.9065 12.63 15.3075 11.14 17.0105 10.422C21.8685 8.37 22.8775 8.012 23.5355 8C23.6805 7.998 24.0045 8.034 24.2135 8.207C24.3905 8.353 24.4395 8.55 24.4635 8.688C24.4865 8.827 24.5155 9.142 24.4925 9.388C24.2285 12.199 23.0895 19.021 22.5095 22.169C22.2645 23.502 21.7815 23.949 21.3145 23.992C20.2985 24.087 19.5265 23.31 18.5425 22.654C17.0025 21.629 16.1325 20.99 14.6385 19.989C12.9105 18.833 14.0305 18.197 15.0155 17.158C15.2725 16.886 19.7495 12.748 19.8355 12.373C19.8465 12.326 19.8565 12.151 19.7545 12.059C19.6525 11.967 19.5015 11.999 19.3925 12.023C19.2375 12.059 16.7785 13.711 12.0125 16.98C11.3145 17.467 10.6825 17.704 10.1155 17.692C9.49049 17.678 8.28949 17.333 7.39549 17.038C6.30049 16.676 5.43049 16.485 5.50549 15.87C5.54549 15.55 5.97849 15.223 6.80649 14.888Z" fill="#2D2DB4"/>
</svg>
