<?xml version="1.0" encoding="UTF-8"?>
<svg xmlns="http://www.w3.org/2000/svg" xmlns:xlink="http://www.w3.org/1999/xlink">
    <symbol viewBox="0 0 232 56" id="page-logo" xmlns="http://www.w3.org/2000/svg">
        <path fill-rule="evenodd" clip-rule="evenodd"
              d="M28.161 52.667C14.481 52.667 3.352 41.6 3.352 28s11.13-24.666 24.81-24.666c9.164 0 17.178 4.97 21.474 12.339l2.91-1.671A28.173 28.173 0 0028.162 0C12.608 0 0 12.536 0 28s12.608 28 28.161 28a28.171 28.171 0 0024.386-14.002l-2.91-1.67C45.34 47.696 37.325 52.667 28.16 52.667z"
              fill="#E33000"/>
        <path fill-rule="evenodd" clip-rule="evenodd"
              d="M28.161 5C15.385 5 5.028 15.298 5.028 28h3.353c0-10.844 8.873-19.667 19.78-19.667 10.907 0 19.78 8.823 19.78 19.667 0 10.844-8.873 19.667-19.78 19.667a19.776 19.776 0 01-13.98-5.767l-2.377 2.364A23.128 23.128 0 0028.16 51c12.776 0 23.133-10.298 23.133-23S40.937 5 28.161 5z"
              fill="#E33000"/>
        <path fill-rule="evenodd" clip-rule="evenodd"
              d="M46.265 28c0-6.662-3.643-12.474-9.053-15.587l-1.679 2.892c4.407 2.539 7.38 7.277 7.38 12.695a14.49 14.49 0 01-.897 5.014l3.151 1.14A17.82 17.82 0 0046.265 28zM28.161 42.667c-8.134 0-14.75-6.58-14.75-14.667 0-6.366 4.1-11.795 9.813-13.82l-.87-3.228C15.203 13.36 10.056 20.08 10.056 28c0 9.941 8.106 18 18.104 18 1.621 0 3.19-.216 4.686-.614l-.868-3.221a14.788 14.788 0 01-3.818.502zm15.676-5.668l-2.907-1.67a14.798 14.798 0 01-4.314 4.677l1.926 2.734A18.116 18.116 0 0043.837 37zm21.656 9.493h1.339v3.461h1.07v-3.46h1.338v-.976h-3.747v.975zm4.686 3.461h2.356c.946 0 1.507-.434 1.507-1.313 0-.533-.285-.887-.731-1.047.348-.168.57-.46.57-.914 0-.78-.552-1.162-1.364-1.162h-2.338v4.436zm1.025-3.638h1c.492 0 .652.16.652.488 0 .294-.16.48-.652.48h-1v-.968zm1.16 1.766c.42 0 .608.195.608.524 0 .346-.187.55-.607.55h-1.161v-1.074h1.16zm4.936 1.96c1.304 0 2.276-.948 2.276-2.306s-.972-2.306-2.276-2.306c-1.303 0-2.275.948-2.275 2.306s.972 2.307 2.275 2.307zm0-.974c-.687 0-1.205-.533-1.205-1.332s.518-1.331 1.205-1.331c.688 0 1.206.532 1.206 1.331 0 .8-.518 1.332-1.206 1.332zm5.802.975c1.223 0 2.141-.949 2.141-2.307s-.918-2.306-2.141-2.306c-.536 0-1 .239-1.34.646v-.558h-1.07v6.655h1.07v-2.777c.34.408.804.647 1.34.647zm-.134-.975c-.688 0-1.206-.533-1.206-1.332s.518-1.331 1.206-1.331c.687 0 1.206.532 1.206 1.331 0 .8-.519 1.332-1.206 1.332zm5.221-1.562c-.67 0-1.027-.248-1.027-.967v-1.02h-1.07v1.02c0 1.366.615 1.942 2.008 1.942.286 0 .616-.027.849-.08v1.553h1.07v-4.436h-1.07v1.917c-.126.027-.313.07-.76.07zm7.372.23c0-1.358-.937-2.306-2.213-2.306s-2.213.948-2.213 2.306.937 2.307 2.213 2.307c1.053 0 1.83-.497 2.097-1.42h-1.16c-.143.312-.42.49-.892.49-.66 0-1.09-.374-1.205-1.022h3.355c.009-.116.018-.23.018-.355zm-2.213-1.376c.624 0 1.035.356 1.15.977h-2.301c.116-.621.526-.977 1.15-.977zm6.363.923h1.124c-.106-1.109-1.026-1.853-2.23-1.853-1.286 0-2.24.948-2.24 2.306s.954 2.307 2.24 2.307c1.24 0 2.186-.78 2.239-1.952h-1.106c-.09.648-.572.977-1.134.977-.67 0-1.169-.533-1.169-1.332s.5-1.331 1.17-1.331c.561 0 1.034.292 1.106.878zm5.239 2.671h1.339l-2.08-2.422 1.964-2.014h-1.41l-1.732 1.934v-1.934h-1.07v4.436h1.07V47.62l1.919 2.333zm3.258-4.436h-1.026v4.436h1.374l1.75-3.31v3.31h1.026v-4.436h-1.374l-1.75 3.32v-3.32zm7.159-2.218c0 .408-.241.577-.554.577-.286-.001-.545-.17-.545-.577h-.847c0 .833.562 1.33 1.392 1.33.839 0 1.4-.497 1.4-1.33h-.846zm-1.581 2.218h-1.025v4.436h1.373l1.75-3.31v3.31h1.026v-4.436h-1.374l-1.75 3.32v-3.32zm7.809 0h-1.025v4.436h1.374l1.75-3.31v3.31h1.025v-4.436h-1.373l-1.751 3.32v-3.32zm7.499 4.436h1.07v-4.436h-1.07v1.722h-1.875v-1.722h-1.071v4.436h1.071v-1.74h1.875v1.74zm6.051 1.198h.981v-2.173h-.625v-3.46h-3.551c0 2.475-.188 3.096-.357 3.46h-.447v2.173h.981v-1.198h3.018v1.198zm-2.312-3.034c.053-.355.08-.88.097-1.625h1.501v2.486h-1.786c.072-.195.134-.462.188-.861zm6.435 2.299l1.686-4.899h-1.07l-1.125 3.417-1.115-3.417h-1.071l1.678 4.89c-.259.621-.571.914-1.071.914-.214 0-.419-.044-.589-.098v.94c.17.053.428.097.687.097 1.133 0 1.615-.753 1.99-1.844zm5.569-3.133h1.124c-.107-1.11-1.026-1.855-2.231-1.855-1.285 0-2.239.949-2.239 2.307s.954 2.307 2.239 2.307c1.241 0 2.187-.78 2.24-1.952h-1.106c-.09.648-.572.977-1.134.977-.669 0-1.169-.533-1.169-1.332s.5-1.331 1.169-1.331c.562 0 1.035.292 1.107.878zm1.625-.79h1.339v3.46h1.07v-3.46h1.339v-.976h-3.748v.975zm7.095 3.549c1.223 0 2.142-.949 2.142-2.307s-.919-2.306-2.142-2.306c-.535 0-1 .239-1.339.646v-.558h-1.07v6.655h1.07v-2.777c.339.408.804.647 1.339.647zm-.134-.975c-.687 0-1.205-.533-1.205-1.332s.518-1.331 1.205-1.331c.688 0 1.206.532 1.206 1.331 0 .8-.518 1.332-1.206 1.332zm4.418-3.55h-1.026v4.436h1.374l1.75-3.31v3.31h1.026v-4.436h-1.374l-1.75 3.32v-3.32zm7.248 4.436h1.052v-3.09c0-1.036-.909-1.434-1.892-1.434-.999 0-1.945.443-1.945 1.594h1.115c0-.496.339-.753.83-.753.465 0 .822.204.822.55 0 .885-2.901.035-2.901 1.944 0 .897.732 1.278 1.499 1.278.616 0 1.134-.222 1.42-.745v.656zm-1.822-1.26c0-.57 1.108-.482 1.822-.775v.204c0 .677-.572 1.034-1.197 1.034-.357 0-.625-.152-.625-.464zm4.33-.088c-.08.24-.241.373-.464.373h-.054v.975h.161c.794 0 1.195-.31 1.382-1.48.072-.436.107-1.058.116-1.98h1.349v3.46h1.07v-4.436h-3.399c0 2.094-.063 2.795-.161 3.088zm8.674-.186c0-.88-.642-1.509-1.775-1.509h-.84v-1.393h-1.07v4.436h1.919c1.187 0 1.766-.656 1.766-1.534zm-1.856-.622c.554 0 .786.213.786.613 0 .39-.232.657-.786.657h-.759v-1.27h.759zm5.874 2.156h1.069v-4.436h-1.069v1.722h-1.876v-1.722h-1.07v4.436h1.07v-1.74h1.876v1.74zm6.184-1.534c0-.88-.642-1.509-1.776-1.509h-.839v-1.393h-1.07v4.436h1.918c1.187 0 1.767-.656 1.767-1.534zm.59 1.534h1.07v-4.436h-1.07v4.436zm-2.446-2.156c.554 0 .786.213.786.613 0 .39-.232.657-.786.657h-.759v-1.27h.759zm7.551-4.498c0 .408-.241.577-.554.577-.286-.001-.545-.17-.545-.577h-.847c0 .833.562 1.33 1.392 1.33.839 0 1.401-.497 1.401-1.33h-.847zm-1.581 2.218h-1.025v4.436h1.373l1.751-3.31v3.31h1.025v-4.436h-1.373l-1.751 3.32v-3.32zm9.773 4.436h1.339l-2.08-2.422 1.964-2.014h-1.41l-1.732 1.934v-1.934h-1.07v4.436h1.07V47.62l1.919 2.333zm2.438-1.348c-.08.24-.241.373-.464.373h-.054v.975h.161c.794 0 1.195-.31 1.382-1.48.072-.436.107-1.058.116-1.98h1.349v3.46h1.07v-4.436h-3.4c0 2.094-.062 2.795-.16 3.088zm7.685 1.348h1.052v-3.09c0-1.036-.91-1.434-1.892-1.434-1 0-1.945.443-1.945 1.594h1.114c0-.496.34-.753.831-.753.464 0 .822.204.822.55 0 .885-2.901.035-2.901 1.944 0 .897.731 1.278 1.498 1.278.617 0 1.135-.222 1.421-.745v.656zm-1.823-1.26c0-.57 1.108-.482 1.823-.775v.204c0 .677-.572 1.034-1.197 1.034-.358 0-.626-.152-.626-.464zm7.248-1.41h1.124c-.107-1.11-1.026-1.855-2.231-1.855-1.285 0-2.239.949-2.239 2.307s.954 2.307 2.239 2.307c1.241 0 2.187-.78 2.24-1.952h-1.106c-.09.648-.572.977-1.134.977-.669 0-1.169-.533-1.169-1.332s.5-1.331 1.169-1.331c.562 0 1.035.292 1.107.878zm1.625-.79h1.339v3.46h1.07v-3.46h1.339v-.976h-3.748v.975zm8.799 1.242c0-1.358-.937-2.306-2.213-2.306s-2.212.948-2.212 2.306.936 2.307 2.212 2.307c1.053 0 1.83-.497 2.098-1.42h-1.161c-.142.312-.419.49-.892.49-.66 0-1.088-.374-1.204-1.022h3.355c.008-.116.017-.23.017-.355zm-2.213-1.376c.625 0 1.036.356 1.152.977h-2.303c.116-.621.527-.977 1.151-.977zm5.739 3.683c1.223 0 2.142-.949 2.142-2.307s-.919-2.306-2.142-2.306c-.535 0-1 .239-1.339.646v-.558h-1.07v6.655h1.07v-2.777c.339.408.804.647 1.339.647zm-.134-.975c-.687 0-1.205-.533-1.205-1.332s.518-1.331 1.205-1.331c.688 0 1.206.532 1.206 1.331 0 .8-.518 1.332-1.206 1.332zM232 38.983V11.112h-3.464v5.673c-2.323-3.961-6.219-6.229-10.72-6.229-7.766 0-13.402 6.095-13.402 14.492 0 8.396 5.636 14.49 13.402 14.49 4.501 0 8.397-2.267 10.72-6.229v5.674H232zm-3.464-13.935c0 3.296-1.023 6.136-2.959 8.213-1.87 2.006-4.488 3.111-7.37 3.111-2.883 0-5.501-1.105-7.371-3.111-1.936-2.077-2.959-4.916-2.959-8.213 0-3.296 1.023-6.137 2.959-8.213 1.87-2.007 4.488-3.113 7.371-3.113 2.882 0 5.5 1.106 7.37 3.112 1.936 2.077 2.959 4.918 2.959 8.214zm-33.03-.675c2.795-1.03 4.331-3.209 4.331-6.153 0-2.229-.861-4.061-2.492-5.3-1.56-1.183-3.787-1.809-6.441-1.809h-12.399v27.872h13.402c2.818 0 5.156-.66 6.764-1.907 1.701-1.318 2.563-3.217 2.563-5.644 0-3.51-2.085-6.074-5.728-7.059zm-5.608-.993h-8.039v-9.546h8.039c4.433 0 6.588 1.543 6.588 4.718 0 3.204-2.217 4.828-6.588 4.828zm7.871 7.94c0 3.232-2.238 4.94-6.475 4.94h-9.435V26.103h9.435c4.296 0 6.475 1.756 6.475 5.218zm-29.537 7.663h3.464V11.112h-3.464v5.673c-2.323-3.961-6.219-6.229-10.72-6.229-7.765 0-13.401 6.095-13.401 14.492 0 8.396 5.636 14.49 13.401 14.49 4.501 0 8.397-2.267 10.72-6.229v5.674zm0-13.935c0 3.296-1.023 6.136-2.958 8.213-1.87 2.006-4.488 3.111-7.371 3.111-2.882 0-5.499-1.105-7.37-3.111-1.936-2.077-2.959-4.917-2.959-8.213 0-3.296 1.023-6.137 2.959-8.213 1.871-2.007 4.488-3.113 7.37-3.113 2.883 0 5.501 1.106 7.371 3.112 1.935 2.077 2.958 4.918 2.958 8.214zm-34.058-10.77h10.386V11.11h-24.236v3.167h10.386v24.705h3.464V14.278zM120.25 38.983l-16.59-14.878 14.916-12.894.114-.1h-4.808L99.667 23.755V11.112h-3.464v27.87h3.464V24.564l15.946 14.42h4.637zM92.24 25.047c0-8.397-5.87-14.492-13.959-14.492-8.089 0-13.96 6.095-13.96 14.492 0 8.396 5.871 14.49 13.96 14.49s13.96-6.094 13.96-14.49zm-3.463 0c0 3.298-1.037 6.138-3 8.212-1.899 2.007-4.56 3.112-7.496 3.112-2.935 0-5.598-1.105-7.497-3.112-1.962-2.074-3-4.913-3-8.212 0-3.298 1.038-6.139 3-8.213 1.9-2.007 4.562-3.113 7.497-3.113 2.935 0 5.597 1.106 7.497 3.113 1.962 2.074 2.999 4.915 2.999 8.213z"
              fill="#E33000"/>
    </symbol>
    <symbol viewBox="0 -960 960 960" id="icon-service-arrow-left" xmlns="http://www.w3.org/2000/svg">
        <path d="M 320 -480 l 240 -240 56 56 -184 184 184 184 -56 56 Z"/>
    </symbol>
    <symbol viewBox="0 -960 960 960" id="icon-service-arrow-right" xmlns="http://www.w3.org/2000/svg">
        <path d="M 640 -480 l -240 -240 -56 56 184 184 -184 184 56 56Z"/>
    </symbol>
    <symbol viewBox="0 0 23 22" id="icon-service-login" xmlns="http://www.w3.org/2000/svg">
        <path fill-rule="evenodd" clip-rule="evenodd"
              d="M11 2a4 4 0 100 8 4 4 0 000-8zM5 6a6 6 0 1112.001 0 6 6 0 01-12 0z"/>
        <path fill-rule="evenodd" clip-rule="evenodd"
              d="M2.055 20h17.891a9.002 9.002 0 00-17.891 0zM0 21c0-6.075 4.925-11 11-11 6.076 0 11.001 4.925 11.001 11a1 1 0 01-1 1H1a1 1 0 01-1-1z"/>
    </symbol>
    <symbol viewBox="0 0 22 22" id="icon-service-search" xmlns="http://www.w3.org/2000/svg">
        <path fill-rule="evenodd" clip-rule="evenodd"
              d="M14.333 2a5.667 5.667 0 100 11.334 5.667 5.667 0 000-11.334zM6.666 7.667a7.667 7.667 0 1115.334 0 7.667 7.667 0 01-15.334 0z"/>
        <path fill-rule="evenodd" clip-rule="evenodd"
              d="M14.333 5.334c-.568 0-1.087.202-1.492.538a1 1 0 11-1.278-1.538 4.333 4.333 0 017.102 3.333 1 1 0 11-2 0 2.333 2.333 0 00-2.332-2.333zM10.325 11.675a1 1 0 010 1.414l-8.618 8.618a1 1 0 01-1.414-1.414l8.618-8.618a1 1 0 011.414 0z"/>
    </symbol>
    <symbol viewBox="0 0 19 16" id="icon-social-tg" xmlns="http://www.w3.org/2000/svg">
        <path fill-rule="evenodd" clip-rule="evenodd"
              d="M1.306 6.888C6.406 4.63 9.807 3.14 11.51 2.422 16.368.37 17.377.012 18.035 0c.145-.002.469.034.678.207.177.146.226.343.25.481.023.139.052.454.029.7-.264 2.811-1.403 9.633-1.983 12.781-.245 1.333-.728 1.78-1.195 1.823-1.016.095-1.788-.682-2.772-1.338-1.54-1.025-2.41-1.664-3.904-2.665-1.728-1.156-.608-1.792.377-2.831.257-.272 4.734-4.41 4.82-4.785.011-.047.021-.222-.081-.314-.102-.092-.253-.06-.362-.036-.155.036-2.614 1.688-7.38 4.957-.698.487-1.33.724-1.897.712-.625-.014-1.826-.359-2.72-.654C.8 8.676-.07 8.485.005 7.87c.04-.32.473-.647 1.301-.982z"/>
    </symbol>
    <symbol viewBox="0 0 18 11" id="icon-social-vk" xmlns="http://www.w3.org/2000/svg">
        <path d="M9.804 11C3.654 11 .146 6.87 0 0h3.08c.102 5.043 2.373 7.18 4.172 7.62V0h2.9v4.35c1.777-.188 3.643-2.17 4.273-4.35h2.9c-.483 2.687-2.507 4.669-3.946 5.483 1.44.661 3.744 2.39 4.621 5.517h-3.193c-.686-2.092-2.395-3.71-4.655-3.93V11h-.348z"/>
    </symbol>
    <symbol viewBox="0 0 18 13" id="icon-social-yt" xmlns="http://www.w3.org/2000/svg">
        <path fill-rule="evenodd" clip-rule="evenodd"
              d="M16.032.388a2.291 2.291 0 011.592 1.642C18 3.478 18 6.5 18 6.5s0 3.022-.376 4.47a2.291 2.291 0 01-1.591 1.642C14.628 13 9 13 9 13s-5.629 0-7.033-.388a2.291 2.291 0 01-1.59-1.642C0 9.522 0 6.5 0 6.5s0-3.022.376-4.47A2.291 2.291 0 011.967.388C3.371 0 9 0 9 0s5.629 0 7.032.388zM11.877 6.5L7.2 9.285V3.714l4.677 2.785z"/>
    </symbol>
    <symbol viewBox="0 0 32 32" id="icon-map-balloon" xmlns="http://www.w3.org/2000/svg">
        <circle cx="16" cy="16" r="16" fill="#E33000"/>
        <path fill-rule="evenodd" clip-rule="evenodd"
              d="M16.052 25.398c-5.207 0-9.443-4.216-9.443-9.397 0-5.182 4.236-9.397 9.443-9.397a9.454 9.454 0 018.173 4.7l1.108-.636a10.721 10.721 0 00-9.281-5.334c-5.92 0-10.718 4.776-10.718 10.667 0 5.89 4.798 10.666 10.718 10.666a10.72 10.72 0 009.282-5.334l-1.108-.636a9.455 9.455 0 01-8.174 4.7z"
              fill="#fff"/>
        <path fill-rule="evenodd" clip-rule="evenodd"
              d="M16.052 7.238c-4.863 0-8.805 3.923-8.805 8.762h1.276c0-4.13 3.377-7.492 7.529-7.492 4.15 0 7.528 3.361 7.528 7.492s-3.377 7.492-7.528 7.492a7.524 7.524 0 01-5.321-2.197l-.905.9a8.798 8.798 0 006.226 2.567c4.862 0 8.805-3.923 8.805-8.762s-3.943-8.762-8.805-8.762z"
              fill="#fff"/>
        <path fill-rule="evenodd" clip-rule="evenodd"
              d="M22.942 16a6.847 6.847 0 00-3.445-5.938l-.64 1.102A5.585 5.585 0 0121.668 16c0 .671-.123 1.314-.342 1.91l1.2.434c.268-.731.418-1.52.418-2.344zm-6.89 5.588c-3.096 0-5.614-2.507-5.614-5.588 0-2.425 1.56-4.493 3.735-5.264l-.331-1.23c-2.721.917-4.68 3.477-4.68 6.494 0 3.788 3.084 6.858 6.89 6.858a6.94 6.94 0 001.783-.234l-.33-1.227c-.463.123-.95.19-1.453.19zm5.967-2.159l-1.107-.636a5.634 5.634 0 01-1.642 1.781l.733 1.042a6.9 6.9 0 002.016-2.187z"
              fill="#fff"/>
    </symbol>
    <symbol viewBox="0 0 24 24" id="icon-map-balloon-landmark" xmlns="http://www.w3.org/2000/svg">
        <circle cx="12" cy="12" r="12" fill="#E33000"/>
        <path d="M12 4l2.116 5.088 5.492.44-4.184 3.585 1.278 5.36L12 15.6l-4.702 2.872 1.278-5.36-4.184-3.584 5.492-.44L12 4z"
              fill="#fff"/>
    </symbol>
</svg>