<?xml version="1.0" encoding="UTF-8"?>
<svg xmlns="http://www.w3.org/2000/svg" xmlns:xlink="http://www.w3.org/1999/xlink">
    <symbol viewBox="0 -960 960 960" id="icon-service-arrow-left" xmlns="http://www.w3.org/2000/svg">
        <path d="M 320 -480 l 240 -240 56 56 -184 184 184 184 -56 56 Z"/>
    </symbol>
    <symbol viewBox="0 -960 960 960" id="icon-service-arrow-right" xmlns="http://www.w3.org/2000/svg">
        <path d="M 640 -480 l -240 -240 -56 56 184 184 -184 184 56 56Z"/>
    </symbol>
    <symbol viewBox="0 0 23 22" id="icon-service-login" xmlns="http://www.w3.org/2000/svg">
        <path fill-rule="evenodd" clip-rule="evenodd"
              d="M11 2a4 4 0 100 8 4 4 0 000-8zM5 6a6 6 0 1112.001 0 6 6 0 01-12 0z"/>
        <path fill-rule="evenodd" clip-rule="evenodd"
              d="M2.055 20h17.891a9.002 9.002 0 00-17.891 0zM0 21c0-6.075 4.925-11 11-11 6.076 0 11.001 4.925 11.001 11a1 1 0 01-1 1H1a1 1 0 01-1-1z"/>
    </symbol>
    <symbol viewBox="0 0 22 22" id="icon-service-search" xmlns="http://www.w3.org/2000/svg">
        <path fill-rule="evenodd" clip-rule="evenodd"
              d="M14.333 2a5.667 5.667 0 100 11.334 5.667 5.667 0 000-11.334zM6.666 7.667a7.667 7.667 0 1115.334 0 7.667 7.667 0 01-15.334 0z"/>
        <path fill-rule="evenodd" clip-rule="evenodd"
              d="M14.333 5.334c-.568 0-1.087.202-1.492.538a1 1 0 11-1.278-1.538 4.333 4.333 0 017.102 3.333 1 1 0 11-2 0 2.333 2.333 0 00-2.332-2.333zM10.325 11.675a1 1 0 010 1.414l-8.618 8.618a1 1 0 01-1.414-1.414l8.618-8.618a1 1 0 011.414 0z"/>
    </symbol>
    <symbol viewBox="0 0 19 16" id="icon-social-tg" xmlns="http://www.w3.org/2000/svg">
        <path fill-rule="evenodd" clip-rule="evenodd"
              d="M1.306 6.888C6.406 4.63 9.807 3.14 11.51 2.422 16.368.37 17.377.012 18.035 0c.145-.002.469.034.678.207.177.146.226.343.25.481.023.139.052.454.029.7-.264 2.811-1.403 9.633-1.983 12.781-.245 1.333-.728 1.78-1.195 1.823-1.016.095-1.788-.682-2.772-1.338-1.54-1.025-2.41-1.664-3.904-2.665-1.728-1.156-.608-1.792.377-2.831.257-.272 4.734-4.41 4.82-4.785.011-.047.021-.222-.081-.314-.102-.092-.253-.06-.362-.036-.155.036-2.614 1.688-7.38 4.957-.698.487-1.33.724-1.897.712-.625-.014-1.826-.359-2.72-.654C.8 8.676-.07 8.485.005 7.87c.04-.32.473-.647 1.301-.982z"/>
    </symbol>
    <symbol viewBox="0 0 18 11" id="icon-social-vk" xmlns="http://www.w3.org/2000/svg">
        <path d="M9.804 11C3.654 11 .146 6.87 0 0h3.08c.102 5.043 2.373 7.18 4.172 7.62V0h2.9v4.35c1.777-.188 3.643-2.17 4.273-4.35h2.9c-.483 2.687-2.507 4.669-3.946 5.483 1.44.661 3.744 2.39 4.621 5.517h-3.193c-.686-2.092-2.395-3.71-4.655-3.93V11h-.348z"/>
    </symbol>
    <symbol viewBox="0 0 18 13" id="icon-social-yt" xmlns="http://www.w3.org/2000/svg">
        <path fill-rule="evenodd" clip-rule="evenodd"
              d="M16.032.388a2.291 2.291 0 011.592 1.642C18 3.478 18 6.5 18 6.5s0 3.022-.376 4.47a2.291 2.291 0 01-1.591 1.642C14.628 13 9 13 9 13s-5.629 0-7.033-.388a2.291 2.291 0 01-1.59-1.642C0 9.522 0 6.5 0 6.5s0-3.022.376-4.47A2.291 2.291 0 011.967.388C3.371 0 9 0 9 0s5.629 0 7.032.388zM11.877 6.5L7.2 9.285V3.714l4.677 2.785z"/>
    </symbol>
</svg>